HIERARCHY
ROOT Hips
{
	OFFSET 0.000000 35.082581 0.000000
	CHANNELS 6 Xposition Yposition Zposition Xrotation Yrotation Zrotation 
	JOINT Spine
	{
		OFFSET 0.000000 6.876099 0.125700
		CHANNELS 3 Xrotation Yrotation Zrotation
		JOINT Spine1
		{
			OFFSET 0.000000 5.730043 0.104720
			CHANNELS 3 Xrotation Yrotation Zrotation
			JOINT Spine1_split
			{
				OFFSET 0.000000 5.730043 0.104720
				CHANNELS 3 Xrotation Yrotation Zrotation
				JOINT Spine2
				{
					OFFSET 0.000000 5.730043 0.104720
					CHANNELS 3 Xrotation Yrotation Zrotation
					JOINT Neck
					{
						OFFSET 0.000000 10.314075 0.188496
						CHANNELS 3 Xrotation Yrotation Zrotation
						JOINT Head
						{
							OFFSET 0.000000 7.643700 -2.377400
							CHANNELS 3 Xrotation Yrotation Zrotation
							JOINT HeadTop_End
							{
								OFFSET 0.000000 43.788605 -13.619600
								CHANNELS 3 Xrotation Yrotation Zrotation
								End Site
								{
									OFFSET 0.000000 0.000000 0.000000
								}
							}
						}
					}
					JOINT LeftShoulder
					{
						OFFSET 2.196100 4.412489 0.087492
						CHANNELS 3 Xrotation Yrotation Zrotation
						JOINT LeftShoulder_split
						{
							OFFSET 2.196100 4.412489 0.087492
							CHANNELS 3 Xrotation Yrotation Zrotation
							JOINT LeftArm
							{
								OFFSET 8.771219 -2.981674 -0.026999
								CHANNELS 3 Xrotation Yrotation Zrotation
								JOINT LeftForeArm
								{
									OFFSET 8.512804 0.000000 -0.000000
									CHANNELS 3 Xrotation Yrotation Zrotation
									JOINT LeftHand
									{
										OFFSET 18.484802 0.000000 -0.000000
										CHANNELS 3 Xrotation Yrotation Zrotation
										JOINT LeftHandThumb1
										{
											OFFSET 2.499420 -1.158070 2.653252
											CHANNELS 3 Xrotation Yrotation Zrotation
											JOINT LeftHandThumb2
											{
												OFFSET 2.370079 -1.368366 1.368366
												CHANNELS 3 Xrotation Yrotation Zrotation
												JOINT LeftHandThumb3
												{
													OFFSET 2.676727 -1.545410 1.545409
													CHANNELS 3 Xrotation Yrotation Zrotation
													JOINT LeftHandThumb4
													{
														OFFSET 1.692226 -0.977005 0.977007
														CHANNELS 3 Xrotation Yrotation Zrotation
														End Site
														{
															OFFSET 0.000000 0.000000 0.000000
														}
													}
												}
											}
										}
										JOINT LeftHandIndex1
										{
											OFFSET 7.924831 -0.457527 2.345128
											CHANNELS 3 Xrotation Yrotation Zrotation
											JOINT LeftHandIndex2
											{
												OFFSET 3.643303 0.000000 0.000000
												CHANNELS 3 Xrotation Yrotation Zrotation
												JOINT LeftHandIndex3
												{
													OFFSET 3.810799 0.000000 0.000000
													CHANNELS 3 Xrotation Yrotation Zrotation
													JOINT LeftHandIndex4
													{
														OFFSET 2.403702 0.000000 0.000000
														CHANNELS 3 Xrotation Yrotation Zrotation
														End Site
														{
															OFFSET 0.000000 0.000000 0.000000
														}
													}
												}
											}
										}
										JOINT LeftHandMiddle1
										{
											OFFSET 8.563995 0.000000 -0.000000
											CHANNELS 3 Xrotation Yrotation Zrotation
											JOINT LeftHandMiddle2
											{
												OFFSET 3.861618 0.000000 0.000000
												CHANNELS 3 Xrotation Yrotation Zrotation
												JOINT LeftHandMiddle3
												{
													OFFSET 3.701603 0.000000 0.000000
													CHANNELS 3 Xrotation Yrotation Zrotation
													JOINT LeftHandMiddle4
													{
														OFFSET 2.322544 0.000000 0.000000
														CHANNELS 3 Xrotation Yrotation Zrotation
														End Site
														{
															OFFSET 0.000000 0.000000 0.000000
														}
													}
												}
											}
										}
										JOINT LeftHandRing1
										{
											OFFSET 8.426460 -0.424637 -3.286992
											CHANNELS 3 Xrotation Yrotation Zrotation
											JOINT LeftHandRing2
											{
												OFFSET 3.126408 0.000000 0.000000
												CHANNELS 3 Xrotation Yrotation Zrotation
												JOINT LeftHandRing3
												{
													OFFSET 3.085026 0.000000 0.000000
													CHANNELS 3 Xrotation Yrotation Zrotation
													JOINT LeftHandRing4
													{
														OFFSET 1.644005 0.000000 0.000000
														CHANNELS 3 Xrotation Yrotation Zrotation
														End Site
														{
															OFFSET 0.000000 0.000000 0.000000
														}
													}
												}
											}
										}
									}
								}
							}
						}
					}
					JOINT RightShoulder
					{
						OFFSET -2.196100 4.412496 0.070690
						CHANNELS 3 Xrotation Yrotation Zrotation
						JOINT RightShoulder_split
						{
							OFFSET -2.196100 4.412496 0.070690
							CHANNELS 3 Xrotation Yrotation Zrotation
							JOINT RightArm
							{
								OFFSET -8.771282 -2.981682 -0.094208
								CHANNELS 3 Xrotation Yrotation Zrotation
								JOINT RightForeArm
								{
									OFFSET -8.494598 0.000000 0.000000
									CHANNELS 3 Xrotation Yrotation Zrotation
									JOINT RightHand
									{
										OFFSET -18.483803 0.000000 0.000001
										CHANNELS 3 Xrotation Yrotation Zrotation
										JOINT RightHandThumb1
										{
											OFFSET -2.527351 -1.008072 2.575253
											CHANNELS 3 Xrotation Yrotation Zrotation
											JOINT RightHandThumb2
											{
												OFFSET -2.321518 -1.340328 1.340329
												CHANNELS 3 Xrotation Yrotation Zrotation
												JOINT RightHandThumb3
												{
													OFFSET -2.657753 -1.534454 1.534455
													CHANNELS 3 Xrotation Yrotation Zrotation
													JOINT RightHandThumb4
													{
														OFFSET -1.807510 -1.043568 1.043567
														CHANNELS 3 Xrotation Yrotation Zrotation
														End Site
														{
															OFFSET 0.000000 0.000000 0.000000
														}
													}
												}
											}
										}
										JOINT RightHandIndex1
										{
											OFFSET -8.811420 0.015533 2.887987
											CHANNELS 3 Xrotation Yrotation Zrotation
											JOINT RightHandIndex2
											{
												OFFSET -3.537502 0.000000 0.000000
												CHANNELS 3 Xrotation Yrotation Zrotation
												JOINT RightHandIndex3
												{
													OFFSET -3.356201 0.000000 0.000000
													CHANNELS 3 Xrotation Yrotation Zrotation
													JOINT RightHandIndex4
													{
														OFFSET -1.933098 0.000000 0.000000
														CHANNELS 3 Xrotation Yrotation Zrotation
														End Site
														{
															OFFSET 0.000000 0.000000 0.000000
														}
													}
												}
											}
										}
										JOINT RightHandMiddle1
										{
											OFFSET -8.178135 0.000000 0.000000
											CHANNELS 3 Xrotation Yrotation Zrotation
											JOINT RightHandMiddle2
											{
												OFFSET -3.901302 0.000000 0.000000
												CHANNELS 3 Xrotation Yrotation Zrotation
												JOINT RightHandMiddle3
												{
													OFFSET -3.909599 0.000000 0.000000
													CHANNELS 3 Xrotation Yrotation Zrotation
													JOINT RightHandMiddle4
													{
														OFFSET -2.376003 0.000000 0.000000
														CHANNELS 3 Xrotation Yrotation Zrotation
														End Site
														{
															OFFSET 0.000000 0.000000 0.000000
														}
													}
												}
											}
										}
										JOINT RightHandRing1
										{
											OFFSET -7.559013 0.014137 -2.865403
											CHANNELS 3 Xrotation Yrotation Zrotation
											JOINT RightHandRing2
											{
												OFFSET -3.449306 0.000000 0.000000
												CHANNELS 3 Xrotation Yrotation Zrotation
												JOINT RightHandRing3
												{
													OFFSET -3.362106 0.000000 0.000000
													CHANNELS 3 Xrotation Yrotation Zrotation
													JOINT RightHandRing4
													{
														OFFSET -2.076401 0.000000 0.000000
														CHANNELS 3 Xrotation Yrotation Zrotation
														End Site
														{
															OFFSET 0.000000 0.000000 0.000000
														}
													}
												}
											}
										}
									}
								}
							}
						}
					}
				}
			}
		}
	}
	JOINT LeftUpLeg
	{
		OFFSET 10.205400 -3.823500 0.155100
		CHANNELS 3 Xrotation Yrotation Zrotation
		JOINT LeftLeg
		{
			OFFSET 0.708757 -12.982077 0.567790
			CHANNELS 3 Xrotation Yrotation Zrotation
			JOINT LeftFoot
			{
				OFFSET -0.708756 -10.717838 -2.184338
				CHANNELS 3 Xrotation Yrotation Zrotation
				JOINT LeftToeBase
				{
					OFFSET 0.108149 -7.191104 7.560241
					CHANNELS 3 Xrotation Yrotation Zrotation
					JOINT LeftToe_End
					{
						OFFSET 0.070230 0.081724 4.490308
						CHANNELS 3 Xrotation Yrotation Zrotation
						End Site
						{
							OFFSET 0.000000 0.000000 0.000000
						}
					}
				}
			}
		}
	}
	JOINT RightUpLeg
	{
		OFFSET -10.205400 -3.823500 0.005500
		CHANNELS 3 Xrotation Yrotation Zrotation
		JOINT RightLeg
		{
			OFFSET -0.708756 -12.982134 0.610632
			CHANNELS 3 Xrotation Yrotation Zrotation
			JOINT RightFoot
			{
				OFFSET 0.708754 -10.717769 -1.945823
				CHANNELS 3 Xrotation Yrotation Zrotation
				JOINT RightToeBase
				{
					OFFSET -0.108140 -7.191069 7.372968
					CHANNELS 3 Xrotation Yrotation Zrotation
					JOINT RightToe_End
					{
						OFFSET -0.070227 0.081735 4.479403
						CHANNELS 3 Xrotation Yrotation Zrotation
						End Site
						{
							OFFSET 0.000000 0.000000 0.000000
						}
					}
				}
			}
		}
	}
}
MOTION
Frames: 4
Frame Time: 0.016667
-0.920401 33.460777 -1.632893 1.163711 6.233614 5.256124 8.196786 -0.976076 7.071231 1.977284 -0.412825 1.344538 0.000000 0.000000 0.000000 1.971130 -0.404077 1.350294 1.471622 0.251579 3.770395 -5.997193 -13.685519 -0.924702 0.000001 -0.000000 0.000000 0.635347 -5.283655 -12.880638 0.000000 0.000000 0.000000 5.726513 -4.951272 -42.398652 -0.000037 -65.564379 -0.000062 -5.370046 -8.061433 -58.939697 -7.220076 -16.942353 15.004556 8.206659 0.329529 4.976428 -0.103963 -18.233019 11.580999 0.000000 -0.000000 -0.000002 -0.931693 -1.396871 -13.797122 1.148770 3.485789 -36.470997 0.124347 1.201804 -11.812874 -0.000001 0.000001 0.000000 0.832888 5.259384 -29.649155 1.128746 3.458573 -36.139975 0.564551 2.511092 -25.337411 -0.000001 0.000003 -0.000000 6.569904 12.601618 -38.071225 2.521122 4.813789 -55.264655 0.033475 0.626016 -6.120691 0.000001 -0.000001 -0.000000 1.688135 19.320715 11.981003 0.000000 0.000000 0.000000 -17.246748 18.683098 60.973140 -0.000327 95.131735 0.000259 -19.139419 -6.743535 -4.913995 17.887605 49.319061 12.919641 30.991936 -39.602878 28.049285 11.489545 -46.546817 8.464863 0.000001 0.000000 0.000005 3.343378 -6.897273 53.623269 1.487418 -3.413766 47.076532 0.006950 -0.254491 3.125537 0.000001 0.000000 -0.000002 3.298274 -6.778208 63.367025 1.097390 -3.004794 40.118182 0.322990 -1.705786 21.442836 -0.000000 -0.000000 -0.000001 5.188543 -7.512430 67.475869 0.689921 -2.441239 31.557414 0.692956 -2.446198 31.628724 -0.000000 -0.000000 -0.000000 -8.707059 5.607641 3.614455 16.947308 3.897292 -0.623821 -6.902076 1.372456 -7.138068 -2.517703 0.000005 0.000002 0.000000 -0.000002 -0.000000 -12.910205 -10.473772 -15.918135 37.526921 1.693301 -1.136487 -25.030060 -10.810378 8.715247 -2.517987 0.000010 -0.000002 -0.000000 -0.000000 -0.000000 
-0.911190 33.458584 -1.617597 1.134214 6.165132 5.263435 8.164392 -1.126571 7.077007 1.971237 -0.454236 1.335349 0.000000 0.000000 0.000000 1.964734 -0.445019 1.341881 1.502342 0.283003 3.704579 -6.423703 -13.408000 -1.036772 0.000000 0.000001 0.000000 0.638339 -5.316648 -12.830696 0.000000 0.000000 0.000000 5.804757 -5.004718 -42.414956 -0.000021 -65.564304 -0.000015 -5.414985 -8.062180 -59.000704 -7.220071 -16.942349 15.004551 8.205371 0.326298 4.976844 -0.100228 -18.247774 11.598956 0.000001 -0.000004 0.000001 -0.925462 -1.417174 -13.702031 1.148238 3.485083 -36.462186 0.124396 1.202122 -11.815998 0.000000 -0.000004 0.000002 0.830604 5.255383 -29.604075 1.128874 3.458754 -36.142144 0.565006 2.512050 -25.347909 0.000002 0.000001 -0.000001 6.563233 12.601814 -38.034547 2.517018 4.810941 -55.215762 0.033457 0.625920 -6.119620 0.000003 0.000000 -0.000000 1.742152 19.638228 11.894608 0.000000 0.000000 0.000000 -14.648416 20.367942 60.669189 -0.000067 96.789976 0.000019 -19.473458 -6.938343 -5.387768 16.983675 48.490406 13.131533 30.991963 -39.602892 28.049271 11.603392 -46.676932 8.513013 -0.000003 -0.000003 0.000001 3.357188 -6.907506 53.814664 1.499355 -3.424798 47.276695 0.007120 -0.258021 3.168998 -0.000000 0.000000 0.000004 3.331233 -6.794224 63.393554 1.109692 -3.019319 40.352501 0.317802 -1.692531 21.267812 0.000002 -0.000000 -0.000002 5.186964 -7.514280 67.421890 0.696315 -2.451627 31.707330 0.698798 -2.455635 31.765492 0.000000 -0.000000 0.000000 -8.581239 5.639043 3.588268 16.942817 3.925798 -0.627766 -7.017203 1.375118 -7.082311 -2.495875 -0.000002 0.000002 -0.000000 -0.000001 0.000000 -12.789048 -10.180603 -15.850187 37.535875 1.475535 -1.126265 -25.041724 -10.855234 8.812115 -2.517990 0.000010 -0.000002 0.000000 0.000002 -0.000000 
-0.900920 33.455811 -1.603663 1.100719 6.089583 5.254850 8.131563 -1.305602 7.079333 1.966686 -0.503289 1.325315 0.000000 0.000000 0.000000 1.959774 -0.493536 1.332820 1.524707 0.316482 3.633385 -6.840196 -13.129490 -1.161057 -0.000001 0.000000 -0.000003 0.638519 -5.362375 -12.762699 0.000000 0.000000 0.000000 5.906806 -5.087485 -42.408822 0.000020 -65.558628 -0.000003 -5.511704 -8.054017 -59.056404 -7.220071 -16.942349 15.004556 8.201857 0.319216 4.980781 -0.095917 -18.265820 11.621322 -0.000001 -0.000002 0.000001 -0.919220 -1.438401 -13.606791 1.147711 3.484385 -36.453830 0.124459 1.202426 -11.818828 -0.000000 -0.000001 0.000002 0.828522 5.251742 -29.562896 1.128917 3.458810 -36.143247 0.565369 2.512845 -25.356514 0.000000 -0.000001 0.000000 6.558665 12.602017 -38.009224 2.513625 4.808597 -55.175378 0.033448 0.625818 -6.118592 0.000000 -0.000001 0.000001 1.812188 19.996183 11.753367 0.000000 0.000000 0.000000 -12.150131 22.247782 60.206041 -0.000023 98.202582 -0.000015 -19.507451 -7.108523 -5.826926 16.072050 47.646320 13.324307 30.991977 -39.602861 28.049290 11.720581 -46.810288 8.562915 0.000002 0.000001 0.000002 3.371461 -6.917998 54.010978 1.511630 -3.436087 47.481938 0.007352 -0.261649 3.213575 0.000000 0.000001 0.000004 3.365049 -6.810615 63.420793 1.122400 -3.034169 40.592784 0.312547 -1.678893 21.088267 -0.000001 -0.000001 0.000001 5.185290 -7.516148 67.366484 0.702909 -2.462252 31.861111 0.704841 -2.465327 31.905767 -0.000000 0.000000 0.000001 -8.467098 5.665020 3.597947 16.960048 3.955597 -0.640327 -7.122805 1.381774 -7.091811 -2.463953 0.000014 -0.000001 0.000000 0.000000 -0.000000 -12.658399 -9.886176 -15.765309 37.525083 1.256271 -1.115829 -25.036084 -10.896798 8.907839 -2.517985 0.000011 -0.000002 -0.000000 -0.000001 0.000000 
-0.888950 33.453617 -1.590128 1.074386 6.032589 5.236403 8.103051 -1.507948 7.074132 1.963646 -0.558698 1.313113 0.000000 0.000000 0.000000 1.956315 -0.548352 1.321723 1.539980 0.351072 3.559210 -7.224473 -12.849044 -1.292568 0.000001 0.000000 -0.000001 0.637414 -5.414081 -12.664112 0.000000 0.000000 0.000000 6.031502 -5.194014 -42.395251 -0.000001 -65.552078 -0.000001 -5.622260 -8.057219 -59.067435 -7.220073 -16.942354 15.004554 8.194852 0.306806 4.986447 -0.091827 -18.279958 11.640750 0.000001 0.000003 0.000002 -0.913711 -1.457658 -13.524779 1.147196 3.483659 -36.444909 0.124513 1.202640 -11.821131 0.000001 0.000001 -0.000001 0.826819 5.248739 -29.529213 1.128991 3.458916 -36.144340 0.565683 2.513493 -25.363438 0.000001 0.000001 -0.000001 6.556998 12.602195 -37.999532 2.511938 4.807432 -55.155226 0.033434 0.625704 -6.117724 0.000002 0.000000 -0.000000 1.891737 20.393169 11.594495 0.000000 0.000000 0.000000 -9.757493 24.346231 59.504082 -0.000165 99.316934 0.000133 -19.132770 -7.232189 -6.153888 15.156402 46.791352 13.496808 30.992038 -39.602847 28.049299 11.840665 -46.946257 8.614364 0.000001 0.000001 0.000002 3.386104 -6.928654 54.211211 1.524199 -3.447563 47.691355 0.007555 -0.265343 3.259033 0.000000 0.000001 -0.000001 3.399568 -6.827294 63.448544 1.135399 -3.049263 40.837957 0.307158 -1.664987 20.905025 -0.000001 -0.000000 0.000001 5.183536 -7.518010 67.309971 0.709668 -2.473086 32.018100 0.710992 -2.475208 32.048866 0.000000 0.000000 0.000001 -8.380763 5.691851 3.615366 16.992688 3.962689 -0.656656 -7.233876 1.387227 -7.087171 -2.425431 0.000008 0.000001 -0.000000 0.000000 -0.000000 -12.511373 -9.592006 -15.669098 37.485028 1.012008 -1.103161 -25.017497 -10.939608 9.015247 -2.517984 0.000014 -0.000002 -0.000000 0.000001 0.000000 
